<svg width="500" height="500" viewBox="500 150 500 500" version="1.1" xmlns="http://www.w3.org/2000/svg" desc="Created with imagetracer.js version 1.2.6">
    <!-- Removed the outer invisible rectangle path -->

    <path fill="rgb(219,219,219)" stroke="rgb(219,219,219)" stroke-width="1" opacity="0.3058823529411765" d="M 754 204 L 740 211 L 736 211 L 718 219 Q 715 218 716 221 L 712 221 L 686 232 Q 683 231 684 234 L 680 234 L 662 242 Q 658 241 659 244 L 653 245 L 651 247 L 648 247 L 630 255 Q 627 254 628 257 L 621 258 L 606 265 Q 602 264 603 267 L 597 268 L 595 270 L 582 275 Q 578 274 579 277 L 575 278 Q 571 277 572 280 L 568 280 L 550 287 L 550 293 Q 554 292 553 295 L 563 297 L 583 305 L 585 310 Q 584 314 586 316 L 585 320 L 586 323 L 586 379 L 585 380 L 586 384 L 585 386 L 585 407 L 584 408 L 584 435 L 596 445 L 601 447 L 603 446 L 603 414 L 602 413 L 602 295 L 601 294 L 602 291 L 758 229 L 772 233 L 774 233 L 774 235 L 798 243 L 801 243 L 815 249 L 838 256 L 849 261 L 875 270 L 878 270 L 886 274 L 904 279 L 906 281 L 912 282 L 933 290 Q 935 289 934 292 L 918 298 Q 914 297 915 300 L 911 301 Q 907 300 908 303 L 905 303 L 893 308 Q 889 307 890 310 L 886 311 Q 882 310 883 313 L 879 313 L 874 316 L 861 320 L 857 323 L 853 323 L 849 326 L 846 326 L 834 331 L 686 331 L 673 326 L 669 326 L 664 323 L 660 323 L 650 318 Q 644 317 643 321 L 643 350 L 646 352 L 836 352 L 850 345 L 855 344 L 978 294 Q 980 293 979 288 L 977 285 L 960 280 L 956 277 L 952 277 L 950 275 L 935 270 L 933 270 L 932 268 L 926 267 L 924 265 L 903 257 Q 896 259 897 255 L 885 250 L 882 250 L 877 247 L 874 247 L 869 244 Q 863 246 864 242 Q 852 240 843 234 Q 837 236 838 232 L 816 224 L 813 224 L 811 222 L 805 221 L 803 219 L 782 211 Q 776 213 777 209 L 764 204 L 754 204 Z M 615 377 L 612 380 L 612 397 Q 614 401 616 398 L 646 398 L 646 482 L 668 482 L 668 482 L 668 398 L 672 399 L 674 398 L 699 398 L 700 397 L 700 385 L 701 384 L 699 379 L 699 377 L 615 377 Z M 705 377 L 702 380 L 712 404 L 712 407 L 714 409 L 715 414 L 722 429 L 722 432 L 727 442 L 741 481 L 745 483 L 764 482 L 771 467 L 772 461 L 774 459 L 779 443 L 781 441 L 784 430 L 792 412 Q 791 407 794 408 L 795 402 L 797 400 L 802 385 L 804 383 L 803 379 L 803 377 L 784 377 L 778 387 L 775 398 L 771 405 L 766 422 L 761 431 L 754 453 L 748 440 L 748 437 L 742 425 L 741 419 L 739 417 L 738 410 L 736 408 L 733 397 L 731 395 L 727 381 L 724 377 L 705 377 Z" />

    <path fill="rgb(219,219,219)" stroke="rgb(219,219,219)" stroke-width="1" opacity="0.3058823529411765" d="M 753.5 204 L 763.5 204 L 777 209 Q 775.6 212.7 781.5 211 L 802.5 219 L 804.5 221 L 810.5 222 L 812.5 224 L 815.5 224 L 838 232 Q 836.6 235.7 842.5 234 Q 852 239.7 864 242 Q 862.6 245.7 868.5 244 L 873.5 247 L 876.5 247 L 881.5 250 L 884.5 250 L 897 255 Q 895.6 259 902.5 257 L 923.5 265 L 925.5 267 L 932 268 L 932.5 270 L 934.5 270 L 949.5 275 L 951.5 277 L 955.5 277 L 959.5 280 L 976.5 285 L 979 287.5 Q 979.8 289.8 977.5 289 L 766.5 208 L 760.5 206 L 755.5 206 L 552 289.5 L 557.5 293 L 587 304 L 587 318.5 L 588 319.5 L 588 392.5 L 587 393.5 L 587 433.5 L 599.5 444 L 601 442.5 L 601 418.5 L 600 417.5 L 600 371.5 L 599 370.5 L 599 289.5 L 601.5 287 L 637.5 274 L 601.5 287 L 599 289.5 L 599 370.5 L 600 371.5 L 600 417.5 L 601 418.5 L 601 442.5 L 599.5 444 L 587 433.5 L 588 392.5 L 588 319.5 L 587 318.5 L 587 304 L 557.5 293 L 552 289.5 L 755.5 206 Z" />

    <path fill="rgb(219,219,219)" stroke="rgb(219,219,219)" stroke-width="1" opacity="0.3058823529411765" d="M 615.5 377 L 612 380 L 612 397 Q 614 401 616 398 L 646 398 L 646 482 L 668 482 L 668 482 L 668 398 L 672 399 L 674 398 L 699 398 L 700 397 L 700 385 L 701 384 L 699 379 L 699 377 L 615 377 Z M 705 377 L 702 380 L 712 404 L 712 407 L 714 409 L 715 414 L 722 429 L 722 432 L 727 442 L 741 481 L 745 483 L 764 482 L 771 467 L 772 461 L 774 459 L 779 443 L 781 441 L 784 430 L 792 412 Q 791 407 794 408 L 795 402 L 797 400 L 802 385 L 804 383 L 803 379 L 803 377 L 784 377 L 778 387 L 775 398 L 771 405 L 766 422 L 761 431 L 754 453 L 748 440 L 748 437 L 742 425 L 741 419 L 739 417 L 738 410 L 736 408 L 733 397 L 731 395 L 727 381 L 724 377 L 705 377 Z" />

    <path fill="rgb(219,219,219)" stroke="rgb(219,219,219)" stroke-width="1" opacity="0.3058823529411765" d="M 809 377 L 808 380 L 808 397 L 810 398 L 857 398 L 857 399 Q 854 398 855 402 L 854 402 L 847 411 Q 848 413 845 412 L 845 415 L 844 415 L 830 434 Q 831 436 828 435 L 820 447 Q 821 449 818 448 L 810 460 Q 811 462 809 461 L 802 471 L 802 482 L 805 483 L 890 483 L 892 480 L 892 466 L 891 465 Q 892 462 890 463 L 888 463 L 887 462 L 836 462 L 837 460 Q 836 456 839 457 L 890 391 L 892 386 L 892 382 Q 895 380 891 379 L 891 377 L 809 377 Z " />

    <path fill="rgb(219,219,219)" stroke="rgb(219,219,219)" stroke-width="1" opacity="0.3058823529411765" d="M 590 458 L 589 459 Q 585 458 586 461 L 582 462 L 576 471 L 576 480 L 576 482 L 581 490 L 580 502 L 579 503 L 579 512 L 577 514 L 577 527 L 574 548 L 574 565 L 573 566 L 574 575 L 593 586 L 601 585 L 615 575 L 615 554 L 614 553 L 613 531 L 612 530 L 609 498 L 607 492 L 607 489 L 610 486 L 612 478 L 611 470 L 605 461 Q 601 462 602 459 Q 598 457 590 458 Z M 643 510 L 640 511 L 639 514 L 639 527 L 640 529 L 642 530 L 664 530 L 672 532 L 678 532 L 696 536 L 699 538 L 711 541 L 737 553 Q 752 562 765 575 Q 767 574 766 577 L 768 577 L 768 579 L 774 584 L 777 584 L 782 578 Q 792 566 805 558 L 822 549 L 835 544 L 856 538 L 869 537 L 870 536 L 901 535 L 902 534 L 902 521 L 902 519 L 901 514 L 868 514 Q 866 517 860 515 L 858 517 L 848 517 Q 841 521 832 521 L 815 528 Q 811 527 812 530 L 809 530 L 801 534 L 791 541 Q 788 540 789 543 Q 786 542 785 545 Q 782 544 783 547 L 778 551 Q 775 550 776 553 L 774 554 L 769 550 Q 766 551 767 548 L 765 547 Q 762 548 763 546 L 760 543 Q 757 544 758 541 L 756 540 Q 752 541 753 538 L 751 537 Q 747 538 748 535 L 746 534 Q 742 535 743 532 L 739 530 Q 734 531 735 528 L 733 527 Q 728 528 729 525 L 707 517 Q 699 519 700 515 Q 695 513 687 514 L 685 512 L 669 511 L 668 510 L 643 510 Z " />

    <path fill="rgb(251,251,251)" stroke="rgb(251,251,251)" stroke-width="1" opacity="0.9921568627450981" d="M 755.5 206 L 760.5 206 L 766.5 208 L 979 289.5 L 973.5 293 L 953.5 300 L 907.5 320 L 879.5 330 L 867.5 336 L 839.5 346 L 832.5 350 L 647.5 350 L 646 348.5 L 646 321 L 649.5 321 L 682.5 333 L 695.5 334 L 696.5 333 L 736.5 333 L 739.5 334 L 827.5 334 L 828.5 333 L 836.5 333 L 930.5 295 L 941 292 L 939.5 289 L 757.5 226 L 637.5 274 L 601.5 287 L 599 289.5 L 599 370.5 L 600 371.5 L 601 442.5 Q 599.3 445.8 597.5 442 L 587 433.5 L 588 319.5 L 587 318.5 L 587 304 L 557.5 293 L 552 289.5 L 755.5 206 Z " />

    <path fill="rgb(251,251,251)" stroke="rgb(251,251,251)" stroke-width="1" opacity="0.9921568627450981" d="M 615.5 380 L 696.5 380 L 698 381.5 L 698 395 L 683.5 395 L 682.5 396 L 666 396 L 666 478.5 L 664.5 480 L 648.5 480 L 648 479.5 L 648 396.5 L 646.5 395 L 622.5 395 L 620.5 395 L 614 395 L 614 381.5 L 615.5 380 Z " />

    <path fill="rgb(251,251,251)" stroke="rgb(251,251,251)" stroke-width="1" opacity="0.9921568627450981" d="M 705.5 380 L 723.5 380 L 727 380.5 L 731 394.5 L 733 396.5 L 736 407.5 L 738 409.5 L 739 416.5 L 741 418.5 L 742 424.5 L 748 436.5 L 748 439.5 L 753.5 453 L 761 430.5 L 766 421.5 L 771 404.5 L 775 397.5 L 778 386.5 L 783.5 377 L 802.5 377 L 803 378.5 Q 894.5 380 892 381.5 L 892 385.5 L 890 390.5 L 838.5 457 Q 835.9 456.2 837 459.5 L 835.5 462 L 886.5 462 L 887.5 463 L 889.5 463 Q 891.8 462.3 891 464.5 L 892 465.5 L 892 479.5 L 889.5 483 L 804.5 483 L 802 482 L 802 470.5 L 827 442.5 Q 842 419 860 398.5 L 861 395 L 810.5 395 L 810 394.5 L 810 380 Z " />

    <path fill="rgb(251,251,251)" stroke="rgb(251,251,251)" stroke-width="1" opacity="0.9921568627450981" d="M 589.5 461 L 598.5 461 L 608 468.5 L 609 480.5 L 604 487.5 L 604 491.5 L 606 495.5 L 609 524.5 L 610 525.5 L 611 543.5 L 612 544.5 L 612 557.5 L 613 558.5 L 613 573 Q 604.3 575.9 598.5 583 L 593.5 584 L 576 572.5 L 579 521.5 L 580 520.5 L 580 511.5 L 584 488.5 Q 577.3 484.7 578 473.5 L 583.5 464 L 589.5 461 Z " />

    <path fill="rgb(251,251,251)" stroke="rgb(251,251,251)" stroke-width="1" opacity="0.9921568627450981" d="M 642 513 L 671.5 513 Q 673.3 515.7 679.5 514 L 713.5 522 L 744.5 536 Q 760.2 544.8 772.5 557 L 774.5 557 Q 797.9 533.4 834.5 523 L 865.5 517 L 898.5 516 L 900 518.5 L 899 523.5 L 900 524.5 L 900 532 L 897.5 533 L 872.5 533 L 871.5 534 L 863.5 534 L 831.5 542 Q 799 553 779 576.5 L 775.5 581 L 747.5 557 L 720.5 542 L 698.5 534 L 682.5 530 L 676.5 530 L 669.5 528 L 642 527 L 642 513 Z " />
</svg>

