<svg viewBox="550 190 420 400" version="1.1" xmlns="http://www.w3.org/2000/svg" desc="Created with imagetracer.js version 1.2.6" ><path fill="rgb(0,0,0)" stroke="rgb(0,0,0)" stroke-width="1" opacity="0" d="M 0 0 L 1472 0 L 1472 832 L 0 832 L 0 0 Z M 754 204 L 740 211 L 736 211 L 718 219 Q 715 218 716 221 L 712 221 L 686 232 Q 683 231 684 234 L 680 234 L 662 242 Q 658 241 659 244 L 653 245 L 651 247 L 648 247 L 630 255 Q 627 254 628 257 L 621 258 L 606 265 Q 602 264 603 267 L 597 268 L 595 270 L 582 275 Q 578 274 579 277 L 575 278 Q 571 277 572 280 L 568 280 L 550 287 L 550 293 Q 554 292 553 295 L 563 297 L 583 305 L 585 310 Q 584 314 586 316 L 585 320 L 586 323 L 586 379 L 585 380 L 586 384 L 585 386 L 585 407 L 584 408 L 584 435 L 596 445 L 601 447 L 603 446 L 603 414 L 602 413 L 602 295 L 601 294 L 602 291 L 758 229 L 772 233 L 774 233 L 774 235 L 798 243 L 801 243 L 815 249 L 838 256 L 849 261 L 875 270 L 878 270 L 886 274 L 904 279 L 906 281 L 912 282 L 933 290 Q 935 289 934 292 L 918 298 Q 914 297 915 300 L 911 301 Q 907 300 908 303 L 905 303 L 893 308 Q 889 307 890 310 L 886 311 Q 882 310 883 313 L 879 313 L 874 316 L 861 320 L 857 323 L 853 323 L 849 326 L 846 326 L 834 331 L 686 331 L 673 326 L 669 326 L 664 323 L 660 323 L 650 318 Q 644 317 643 321 L 643 350 L 646 352 L 836 352 L 850 345 L 855 344 L 978 294 Q 980 293 979 288 L 977 285 L 960 280 L 956 277 L 952 277 L 950 275 L 935 270 L 933 270 L 932 268 L 926 267 L 924 265 L 903 257 Q 896 259 897 255 L 885 250 L 882 250 L 877 247 L 874 247 L 869 244 Q 863 246 864 242 Q 852 240 843 234 Q 837 236 838 232 L 816 224 L 813 224 L 811 222 L 805 221 L 803 219 L 782 211 Q 776 213 777 209 L 764 204 L 754 204 Z M 615 377 L 612 380 L 612 397 Q 614 401 616 398 L 646 398 L 646 482 L 668 482 L 668 482 L 668 398 L 672 399 L 674 398 L 699 398 L 700 397 L 700 385 L 701 384 L 699 379 L 699 377 L 615 377 Z M 705 377 L 702 380 L 712 404 L 712 407 L 714 409 L 715 414 L 722 429 L 722 432 L 727 442 L 741 481 L 745 483 L 764 482 L 771 467 L 772 461 L 774 459 L 779 443 L 781 441 L 784 430 L 792 412 Q 791 407 794 408 L 795 402 L 797 400 L 802 385 L 804 383 L 803 379 L 803 377 L 784 377 L 778 387 L 775 398 L 771 405 L 766 422 L 761 431 L 754 453 L 748 440 L 748 437 L 742 425 L 741 419 L 739 417 L 738 410 L 736 408 L 733 397 L 731 395 L 727 381 L 724 377 L 705 377 Z M 809 377 L 808 380 L 808 397 L 810 398 L 857 398 L 857 399 Q 854 398 855 402 L 854 402 L 847 411 Q 848 413 845 412 L 845 415 L 844 415 L 830 434 Q 831 436 828 435 L 820 447 Q 821 449 818 448 L 810 460 Q 811 462 809 461 L 802 471 L 802 482 L 805 483 L 890 483 L 892 480 L 892 466 L 891 465 Q 892 462 890 463 L 888 463 L 887 462 L 836 462 L 837 460 Q 836 456 839 457 L 890 391 L 892 386 L 892 382 Q 895 380 891 379 L 891 377 L 809 377 Z M 590 458 L 589 459 Q 585 458 586 461 L 582 462 L 576 471 L 576 480 L 576 482 L 581 490 L 580 502 L 579 503 L 579 512 L 577 514 L 577 527 L 576 528 L 577 531 L 576 532 L 576 545 L 574 548 L 574 565 L 573 566 L 574 575 L 593 586 L 601 585 L 615 575 L 615 554 L 614 553 L 613 531 L 612 530 L 609 498 L 607 492 L 607 489 L 610 486 L 612 478 L 611 470 L 605 461 Q 601 462 602 459 Q 598 457 590 458 Z M 643 510 L 640 511 L 639 514 L 639 527 L 640 529 L 642 530 L 664 530 L 672 532 L 678 532 L 696 536 L 699 538 L 711 541 L 737 553 Q 752 562 765 575 Q 767 574 766 577 L 768 577 L 768 579 L 774 584 L 777 584 L 782 578 Q 792 566 805 558 L 822 549 L 835 544 L 856 538 L 869 537 L 870 536 L 901 535 L 902 534 L 902 521 L 902 519 L 901 514 L 868 514 Q 866 517 860 515 L 858 517 L 848 517 Q 841 521 832 521 L 815 528 Q 811 527 812 530 L 809 530 L 801 534 L 791 541 Q 788 540 789 543 Q 786 542 785 545 Q 782 544 783 547 L 778 551 Q 775 550 776 553 L 774 554 L 769 550 Q 766 551 767 548 L 765 547 Q 762 548 763 546 L 760 543 Q 757 544 758 541 L 756 540 Q 752 541 753 538 L 751 537 Q 747 538 748 535 L 746 534 Q 742 535 743 532 L 739 530 Q 734 531 735 528 L 733 527 Q 728 528 729 525 L 707 517 Q 699 519 700 515 Q 695 513 687 514 L 685 512 L 669 511 L 668 510 L 643 510 Z " /><path fill="rgb(219,219,219)" stroke="rgb(219,219,219)" stroke-width="1" opacity="0.3058823529411765" d="M 753.5 204 L 763.5 204 L 777 209 Q 775.6 212.7 781.5 211 L 802.5 219 L 804.5 221 L 810.5 222 L 812.5 224 L 815.5 224 L 838 232 Q 836.6 235.7 842.5 234 Q 852 239.7 864 242 Q 862.6 245.7 868.5 244 L 873.5 247 L 876.5 247 L 881.5 250 L 884.5 250 L 897 255 Q 895.6 259 902.5 257 L 923.5 265 L 925.5 267 L 932 268 L 932.5 270 L 934.5 270 L 949.5 275 L 951.5 277 L 955.5 277 L 959.5 280 L 976.5 285 L 979 287.5 Q 979.8 289.8 977.5 289 L 766.5 208 L 760.5 206 L 755.5 206 L 552 289.5 L 557.5 293 L 587 304 L 587 318.5 L 588 319.5 L 588 392.5 L 587 393.5 L 587 433.5 L 599.5 444 L 601 442.5 L 601 418.5 L 600 417.5 L 600 371.5 L 599 370.5 L 599 289.5 L 601.5 287 L 637.5 274 L 758.5 226 L 885.5 270 L 902.5 277 L 908.5 278 L 941 290.5 Q 941.8 293.1 938.5 292 L 836.5 333 L 828.5 333 L 827.5 334 L 739.5 334 L 736.5 333 L 696.5 333 L 695.5 334 L 686.5 334 L 649.5 321 L 646 321 L 646 348.5 L 647.5 350 L 832.5 350 L 839.5 346 L 917.5 316 L 978.5 290 L 979 292.5 L 973.5 296 L 849.5 345 L 835.5 352 L 645.5 352 L 643 349.5 L 643 320.5 Q 644 317 649.5 318 L 659.5 323 L 663.5 323 L 668.5 326 L 672.5 326 L 685.5 331 L 833.5 331 L 845.5 326 L 848.5 326 L 852.5 323 L 856.5 323 L 860.5 320 L 873.5 316 L 878.5 313 L 883 313 Q 881.8 310 885.5 311 L 890 310 Q 888.8 307 892.5 308 L 904.5 303 L 908 303 Q 906.8 300 910.5 301 L 915 300 Q 913.8 297 917.5 298 L 934 292 Q 935.1 289.3 932.5 290 L 911.5 282 L 905.5 281 L 903.5 279 L 885.5 274 L 877.5 270 L 874.5 270 L 848.5 261 L 837.5 256 L 814.5 249 L 800.5 243 L 797.5 243 L 774 235 L 773.5 233 L 771.5 233 L 757.5 229 L 602 290.5 L 601 293.5 L 602 294.5 L 602 412.5 L 603 413.5 L 603 445.5 L 600.5 447 L 595.5 445 L 584 434.5 L 584 407.5 L 585 406.5 L 585 385.5 L 586 383.5 L 585 379.5 L 586 378.5 L 586 322.5 L 585 319.5 L 586 315.5 Q 583.8 314.3 585 309.5 L 582.5 305 L 562.5 297 L 553 295 Q 554.1 291.7 550 293 L 550 287 L 567.5 280 L 572 280 Q 570.8 277 574.5 278 L 579 277 Q 577.8 274 581.5 275 L 594.5 270 L 596.5 268 L 603 267 Q 601.8 264 605.5 265 L 620.5 258 L 628 257 Q 626.9 254.3 629.5 255 L 647.5 247 L 650.5 247 L 652.5 245 L 659 244 Q 657.8 241 661.5 242 L 679.5 234 L 684 234 Q 682.9 231.3 685.5 232 L 711.5 221 L 716 221 Q 714.9 218.3 717.5 219 L 735.5 211 L 739.5 211 L 753.5 204 Z " /><path fill="rgb(219,219,219)" stroke="rgb(219,219,219)" stroke-width="1" opacity="0.3058823529411765" d="M 614.5 377 L 698.5 377 L 699 378.5 L 701 383.5 L 700 384.5 L 700 396.5 L 698.5 398 L 673.5 398 L 671.5 399 L 668 398 L 668 481.5 L 667.5 482 L 646 482 L 646 398 L 615.5 398 Q 613.8 400.7 612 396.5 L 612 379.5 L 614.5 377 Z M 616 380 L 614 382 L 614 395 L 621 395 L 623 395 L 647 395 L 648 397 L 648 480 L 649 480 L 665 480 L 666 479 L 666 396 L 683 396 L 684 395 L 698 395 L 698 382 L 697 380 L 616 380 Z " /><path fill="rgb(219,219,219)" stroke="rgb(219,219,219)" stroke-width="1" opacity="0.3058823529411765" d="M 704.5 377 L 723.5 377 L 727 380.5 L 731 394.5 L 733 396.5 L 736 407.5 L 738 409.5 L 739 416.5 L 741 418.5 L 742 424.5 L 748 436.5 L 748 439.5 L 753.5 453 L 761 430.5 L 766 421.5 L 771 404.5 L 775 397.5 L 778 386.5 L 783.5 377 L 802.5 377 L 803 378.5 L 804 382.5 L 802 384.5 L 797 399.5 L 795 401.5 L 794 408 Q 790.7 406.7 792 411.5 L 784 429.5 L 781 440.5 L 779 442.5 L 774 458.5 L 772 460.5 L 771 466.5 L 763.5 482 L 744.5 483 L 741 480.5 L 727 441.5 L 722 431.5 L 722 428.5 L 715 413.5 L 714 408.5 L 712 406.5 L 712 403.5 L 702 379.5 L 704.5 377 Z M 706 380 L 743 479 L 745 480 L 762 480 L 765 475 Q 782 427 801 382 L 801 380 L 785 380 L 777 396 L 755 456 Q 756 460 752 458 L 724 382 L 724 380 L 706 380 Z " /><path fill="rgb(219,219,219)" stroke="rgb(219,219,219)" stroke-width="1" opacity="0.3058823529411765" d="M 809 377 L 890.5 377 L 891 378.5 Q 894.5 380 892 381.5 L 892 385.5 L 890 390.5 L 838.5 457 Q 835.9 456.2 837 459.5 L 835.5 462 L 886.5 462 L 887.5 463 L 889.5 463 Q 891.8 462.3 891 464.5 L 892 465.5 L 892 479.5 L 889.5 483 L 804.5 483 L 802 482 L 802 470.5 L 808.5 461 Q 810.8 461.8 810 459.5 L 818 448 Q 820.7 449.1 820 446.5 L 828 435 Q 830.7 436.1 830 433.5 L 843.5 415 L 845 415 L 845 412 Q 847.7 413.1 847 410.5 L 853.5 402 L 855 402 Q 853.5 398.3 856.5 399 L 856.5 398 L 809.5 398 L 808 396.5 L 808 379.5 L 809 377 Z M 810 380 L 810 395 L 811 395 L 861 395 L 860 399 Q 842 419 827 443 L 804 471 L 805 480 L 889 480 L 889 480 L 889 465 L 832 465 L 830 464 L 889 387 Q 890 380 889 380 L 810 380 Z " /><path fill="rgb(219,219,219)" stroke="rgb(219,219,219)" stroke-width="1" opacity="0.3058823529411765" d="M 589.5 458 Q 597.9 457.1 602 459 Q 600.8 462 604.5 461 L 611 469.5 L 612 477.5 L 610 485.5 L 607 488.5 L 607 491.5 L 609 497.5 L 612 529.5 L 613 530.5 L 614 552.5 L 615 553.5 L 615 574.5 L 600.5 585 L 592.5 586 L 574 574.5 L 573 565.5 L 574 564.5 L 574 547.5 L 576 544.5 L 576 531.5 L 577 530.5 L 576 527.5 L 577 526.5 L 577 513.5 L 579 511.5 L 579 502.5 L 580 501.5 L 581 489.5 L 576 481.5 L 576 479.5 L 576 470.5 L 581.5 462 L 586 461 Q 584.8 458 588.5 459 L 589.5 458 Z M 590 461 L 584 464 L 578 474 Q 577 485 584 489 L 580 512 L 580 521 L 579 522 L 576 573 L 594 584 L 599 583 Q 604 576 613 573 L 613 559 L 612 558 L 612 545 L 611 544 L 610 526 L 609 525 L 606 496 L 604 492 L 604 488 L 609 481 L 608 469 L 599 461 L 590 461 Z " /><path fill="rgb(219,219,219)" stroke="rgb(219,219,219)" stroke-width="1" opacity="0.3058823529411765" d="M 642.5 510 L 667.5 510 L 668.5 511 L 684.5 512 L 686.5 514 Q 695.1 513.3 700 515 Q 698.9 518.5 706.5 517 L 729 525 Q 727.7 528.3 732.5 527 L 735 528 Q 733.7 531.3 738.5 530 L 743 532 Q 741.8 535 745.5 534 L 748 535 Q 746.8 538 750.5 537 L 753 538 Q 751.8 541 755.5 540 L 758 541 Q 756.9 543.7 759.5 543 L 763 545.5 Q 762.3 547.8 764.5 547 L 767 548 Q 765.9 550.7 768.5 550 L 773.5 554 L 776 553 Q 774.9 550.3 777.5 551 L 783 547 Q 781.9 544.3 784.5 545 Q 785.6 542.3 789 543 Q 787.9 540.3 790.5 541 L 800.5 534 L 808.5 530 L 812 530 Q 810.8 527 814.5 528 L 831.5 521 Q 841.1 520.6 847.5 517 L 857.5 517 L 859.5 515 Q 865.8 516.8 867.5 514 L 901 514 L 902 518.5 L 902 520.5 L 902 533.5 L 900.5 535 L 869.5 536 L 868.5 537 L 855.5 538 L 834.5 544 L 821.5 549 L 804.5 558 Q 791.6 566.1 782 577.5 L 776.5 584 L 773.5 584 L 768 578.5 L 768 577 L 766 577 Q 767.1 574.3 764.5 575 Q 752.3 562.2 736.5 553 L 710.5 541 L 698.5 538 L 695.5 536 L 677.5 532 L 671.5 532 L 663.5 530 L 641.5 530 L 640 528.5 L 639 526.5 L 639 513.5 L 640 511 L 642.5 510 Z M 642 513 L 642 527 L 670 528 L 677 530 L 683 530 L 699 534 L 721 542 L 748 557 L 776 581 L 779 577 Q 799 553 832 542 L 864 534 L 872 534 L 873 533 L 898 533 L 900 532 L 900 525 L 899 524 L 900 519 L 899 516 L 866 517 L 835 523 Q 798 533 775 557 L 773 557 Q 760 545 745 536 L 714 522 L 680 514 Q 673 516 672 513 L 642 513 Z " /><path fill="rgb(251,251,251)" stroke="rgb(251,251,251)" stroke-width="1" opacity="0.9921568627450981" d="M 755.5 206 L 760.5 206 L 766.5 208 L 979 289.5 L 973.5 293 L 953.5 300 L 907.5 320 L 879.5 330 L 867.5 336 L 839.5 346 L 832.5 350 L 647.5 350 L 646 348.5 L 646 321 L 649.5 321 L 682.5 333 L 695.5 334 L 696.5 333 L 736.5 333 L 739.5 334 L 827.5 334 L 828.5 333 L 836.5 333 L 930.5 295 L 941 292 L 939.5 289 L 757.5 226 L 637.5 274 L 601.5 287 L 599 289.5 L 599 370.5 L 600 371.5 L 601 442.5 Q 599.3 445.8 597.5 442 L 587 433.5 L 588 319.5 L 587 318.5 L 587 304 L 557.5 293 L 552 289.5 L 755.5 206 Z " /><path fill="rgb(251,251,251)" stroke="rgb(251,251,251)" stroke-width="1" opacity="0.9921568627450981" d="M 615.5 380 L 696.5 380 L 698 381.5 L 698 395 L 683.5 395 L 682.5 396 L 666 396 L 666 478.5 L 664.5 480 L 648.5 480 L 648 479.5 L 648 396.5 L 646.5 395 L 622.5 395 L 620.5 395 L 614 395 L 614 381.5 L 615.5 380 Z " /><path fill="rgb(251,251,251)" stroke="rgb(251,251,251)" stroke-width="1" opacity="0.9921568627450981" d="M 705.5 380 L 723.5 380 L 724 381.5 L 752 458 Q 756.1 459.7 755 455.5 L 777 395.5 L 784.5 380 L 800.5 380 L 801 381.5 Q 781.5 426.5 765 474.5 L 761.5 480 L 744.5 480 L 743 478.5 L 705.5 380 Z " /><path fill="rgb(251,251,251)" stroke="rgb(251,251,251)" stroke-width="1" opacity="0.9921568627450981" d="M 810 380 L 888.5 380 Q 889.8 380.3 889 386.5 L 830 463.5 L 831.5 465 L 889 465 L 889 479.5 L 888.5 480 L 805 480 L 804 470.5 L 827 442.5 Q 842 419 860 398.5 L 861 395 L 810.5 395 L 810 394.5 L 810 380 Z " /><path fill="rgb(251,251,251)" stroke="rgb(251,251,251)" stroke-width="1" opacity="0.9921568627450981" d="M 589.5 461 L 598.5 461 L 608 468.5 L 609 480.5 L 604 487.5 L 604 491.5 L 606 495.5 L 609 524.5 L 610 525.5 L 611 543.5 L 612 544.5 L 612 557.5 L 613 558.5 L 613 573 Q 604.3 575.9 598.5 583 L 593.5 584 L 576 572.5 L 579 521.5 L 580 520.5 L 580 511.5 L 584 488.5 Q 577.3 484.7 578 473.5 L 583.5 464 L 589.5 461 Z " /><path fill="rgb(251,251,251)" stroke="rgb(251,251,251)" stroke-width="1" opacity="0.9921568627450981" d="M 642 513 L 671.5 513 Q 673.3 515.7 679.5 514 L 713.5 522 L 744.5 536 Q 760.2 544.8 772.5 557 L 774.5 557 Q 797.9 533.4 834.5 523 L 865.5 517 L 898.5 516 L 900 518.5 L 899 523.5 L 900 524.5 L 900 532 L 897.5 533 L 872.5 533 L 871.5 534 L 863.5 534 L 831.5 542 Q 799 553 779 576.5 L 775.5 581 L 747.5 557 L 720.5 542 L 698.5 534 L 682.5 530 L 676.5 530 L 669.5 528 L 642 527 L 642 513 Z " /></svg>